<?xml version="1.0" encoding="UTF-8"?>
<svg xmlns="http://www.w3.org/2000/svg" width="320" height="56" viewBox="0 0 320 56">
  <rect x="0.75" y="0.75" width="318.5" height="54.5" rx="12" ry="12"
        fill="#0078D4" stroke="#0066B4" stroke-width="1.5"/>
  <g transform="translate(22,14.0) scale(1.1666666666666667)">
    <path fill="#FFFFFF" d="M22.379 23.343a1.62 1.62 0 0 0 1.536-2.14v.002L17.35 1.76A1.62 1.62 0 0 0 15.816.657H8.184A1.62 1.62 0 0 0 6.65 1.76L.086 21.204a1.62 1.62 0 0 0 1.536 2.139h4.741a1.62 1.62 0 0 0 1.535-1.103l.977-2.892 4.947 3.675c.28.208.618.32.966.32m-3.084-12.531 3.624 10.739a.54.54 0 0 1-.51.713v-.001h-.03a.54.54 0 0 1-.322-.106l-9.287-6.9h4.853m6.313 7.006c.116-.326.13-.694.007-1.058L9.79 1.76a1.722 1.722 0 0 0-.007-.02h6.034a.54.54 0 0 1 .512.366l6.562 19.445a.54.54 0 0 1-.338.684"/>
  </g>
  <text x="64" y="28.0" dominant-baseline="central"
        font-family="-apple-system, BlinkMacSystemFont, 'Segoe UI', Roboto, Helvetica, Arial, sans-serif"
        font-size="15" font-weight="700" fill="#FFFFFF">Deploy to Azure</text>
</svg>
