<?xml version="1.0" encoding="UTF-8"?>
<svg xmlns="http://www.w3.org/2000/svg" width="320" height="56" viewBox="0 0 320 56">
  <rect x="0.75" y="0.75" width="318.5" height="54.5" rx="12" ry="12"
        fill="#0080FF" stroke="#006FE0" stroke-width="1.5"/>
  <g transform="translate(22,14.0) scale(1.1666666666666667)">
    <path fill="#FFFFFF" d="M12.04 0C5.408-.02.005 5.37.005 11.992h4.638c0-4.923 4.882-8.731 10.064-6.855a6.95 6.95 0 014.147 4.148c1.889 5.177-1.924 10.055-6.84 10.064v-4.61H7.391v4.623h4.61V24c7.86 0 13.967-7.588 11.397-15.83-1.115-3.59-3.985-6.446-7.575-7.575A12.8 12.8 0 0012.039 0zM7.39 19.362H3.828v3.564H7.39zm-3.563 0v-2.978H.85v2.978z"/>
  </g>
  <text x="64" y="28.0" dominant-baseline="central"
        font-family="-apple-system, BlinkMacSystemFont, 'Segoe UI', Roboto, Helvetica, Arial, sans-serif"
        font-size="15" font-weight="700" fill="#FFFFFF">1-Click on DigitalOcean</text>
</svg>
